<svg width="4174" height="2298" xmlns="http://www.w3.org/2000/svg" xmlns:xlink="http://www.w3.org/1999/xlink" xml:space="preserve" overflow="hidden"><defs><linearGradient x1="2738.06" y1="2069.84" x2="2738.06" y2="2207.84" gradientUnits="userSpaceOnUse" spreadMethod="reflect" id="fill0"><stop offset="0" stop-color="#9B9B9B"/><stop offset="0.5" stop-color="#8E8E8E"/><stop offset="1" stop-color="#797979"/></linearGradient><linearGradient x1="686.706" y1="896.341" x2="748.707" y2="896.341" gradientUnits="userSpaceOnUse" spreadMethod="reflect" id="fill1"><stop offset="0" stop-color="#6083CB"/><stop offset="0.5" stop-color="#3E70CA"/><stop offset="1" stop-color="#2E61BA"/></linearGradient><linearGradient x1="2148.69" y1="1753.84" x2="2148.69" y2="1891.84" gradientUnits="userSpaceOnUse" spreadMethod="reflect" id="fill2"><stop offset="0" stop-color="#9B9B9B"/><stop offset="0.5" stop-color="#8E8E8E"/><stop offset="1" stop-color="#797979"/></linearGradient></defs><g transform="translate(-652 50)"><path d="M749.558 2092.84C749.558 2080.14 765.001 2069.84 784.052 2069.84L4692.06 2069.84C4711.12 2069.84 4726.56 2080.14 4726.56 2092.84L4726.56 2184.84C4726.56 2197.55 4711.12 2207.84 4692.06 2207.84L784.052 2207.84C765.001 2207.84 749.558 2197.55 749.558 2184.84Z" stroke="#A6A6A6" stroke-width="6.20374" stroke-miterlimit="8" fill="url(#fill0)" fill-rule="evenodd"/><path d="M749.558 2072.84C749.558 2060.14 765.001 2049.84 784.052 2049.84L4692.06 2049.84C4711.12 2049.84 4726.56 2060.14 4726.56 2072.84L4726.56 2164.84C4726.56 2177.55 4711.12 2187.84 4692.06 2187.84L784.052 2187.84C765.001 2187.84 749.558 2177.55 749.558 2164.84Z" stroke="#A6A6A6" stroke-width="6.20374" stroke-miterlimit="8" fill="#FFFFFF" fill-rule="evenodd"/><path d="M1547.7 231.84C1547.7 210.854 1564.71 193.841 1585.68 193.841L2118.73 193.841C2139.7 193.841 2156.7 210.854 2156.7 231.84L2156.7 231.84C2156.7 252.827 2139.7 269.841 2118.73 269.841L1585.68 269.84C1564.71 269.84 1547.7 252.827 1547.7 231.84Z" fill="#FFFF00" fill-rule="evenodd"/><text font-family="Microsoft YaHei,Microsoft YaHei_MSFontService,sans-serif" font-weight="700" font-size="183" transform="matrix(1 0 0 1 762.591 211)">该程序由</text><text fill="#0070C0" font-family="Microsoft YaHei,Microsoft YaHei_MSFontService,sans-serif" font-weight="400" font-size="183" transform="matrix(1 0 0 1 1430.28 182)">「</text><text fill="#0070C0" font-family="Arial,Arial_MSFontService,sans-serif" font-weight="400" font-size="183" transform="matrix(1 0 0 1 1590.14 206)">HYQY</text><text fill="#0070C0" font-family="Microsoft YaHei,Microsoft YaHei_MSFontService,sans-serif" font-weight="400" font-size="183" transform="matrix(1 0 0 1 2102.56 234)">」</text><text font-family="Microsoft YaHei,Microsoft YaHei_MSFontService,sans-serif" font-weight="700" font-size="183" transform="matrix(1 0 0 1 2244.2 211)">开发</text><text fill="#7F7F7F" font-family="SimSun,SimSun_MSFontService,sans-serif" font-style="oblique" font-weight="400" font-size="110" transform="matrix(1 0 0 1 762.591 527)">愿每一次点击都被温柔以待，</text><text fill="#7F7F7F" font-family="SimSun,SimSun_MSFontService,sans-serif" font-style="oblique" font-weight="400" font-size="110" transform="matrix(1 0 0 1 762.591 795)">愿每一段文字都能被看见、被听见。</text><text fill="#7F7F7F" font-family="SimSun,SimSun_MSFontService,sans-serif" font-style="oblique" font-weight="400" font-size="110" transform="matrix(1 0 0 1 762.591 1064)">我们用心打造无障碍浏览工具，</text><text fill="#7F7F7F" font-family="SimSun,SimSun_MSFontService,sans-serif" font-style="oblique" font-weight="400" font-size="110" transform="matrix(1 0 0 1 762.591 1332)">让屏幕不再有距离，让信息对每个人都平等、友好、温暖。</text><text fill="#7F7F7F" font-family="SimSun,SimSun_MSFontService,sans-serif" font-style="oblique" font-weight="400" font-size="110" transform="matrix(1 0 0 1 782.138 2002)">* </text><text fill="#7F7F7F" font-family="SimSun,SimSun_MSFontService,sans-serif" font-style="oblique" font-weight="400" font-size="110" transform="matrix(1 0 0 1 892.138 2002)">Js</text><text fill="#7F7F7F" font-family="SimSun,SimSun_MSFontService,sans-serif" font-style="oblique" font-weight="400" font-size="110" transform="matrix(1 0 0 1 1002.14 2002)">地址</text><text fill="#00B050" font-family="Cascadia Code,Cascadia Code_MSFontService,sans-serif" font-weight="400" font-size="110" transform="matrix(1 0 0 1 762.591 2155)">https://hyqy2012.github.io/H_accessibility/H_accessibility.js</text><text fill="#00B050" font-family="Cascadia Code,Cascadia Code_MSFontService,sans-serif" font-weight="400" font-size="110" transform="matrix(1 0 0 1 4694.52 2155)"> </text><path d="M686.706 1330.67 686.706 462.01C686.706 444.797 700.586 430.841 717.707 430.841L748.707 430.843 748.707 1361.84 717.707 1361.84C700.586 1361.84 686.706 1347.88 686.706 1330.67Z" fill="url(#fill1)" fill-rule="evenodd"/><path d="M749.689 1776.84C749.689 1764.14 760.554 1753.84 773.957 1753.84L3523.42 1753.84C3536.82 1753.84 3547.69 1764.14 3547.69 1776.84L3547.69 1868.84C3547.69 1881.55 3536.82 1891.84 3523.42 1891.84L773.957 1891.84C760.554 1891.84 749.689 1881.55 749.689 1868.84Z" stroke="#A6A6A6" stroke-width="6.20374" stroke-miterlimit="8" fill="url(#fill2)" fill-rule="evenodd"/><path d="M749.689 1756.84C749.689 1744.14 760.554 1733.84 773.957 1733.84L3523.42 1733.84C3536.82 1733.84 3547.69 1744.14 3547.69 1756.84L3547.69 1848.84C3547.69 1861.55 3536.82 1871.84 3523.42 1871.84L773.957 1871.84C760.554 1871.84 749.689 1861.55 749.689 1848.84Z" stroke="#A6A6A6" stroke-width="6.20374" stroke-miterlimit="8" fill="#FFFFFF" fill-rule="evenodd"/><text fill="#7F7F7F" font-family="SimSun,SimSun_MSFontService,sans-serif" font-style="oblique" font-weight="400" font-size="110" transform="matrix(1 0 0 1 782.138 1686)">* </text><text fill="#7F7F7F" font-family="SimSun,SimSun_MSFontService,sans-serif" font-style="oblique" font-weight="400" font-size="110" transform="matrix(1 0 0 1 892.138 1686)">仓库地址</text><text fill="#00B050" font-family="Cascadia Code,Cascadia Code_MSFontService,sans-serif" font-weight="400" font-size="110" transform="matrix(1 0 0 1 762.591 1839)">https://github.com/HYQY2012/H_accessibility</text><text fill="#00B050" font-family="Cascadia Code,Cascadia Code_MSFontService,sans-serif" font-weight="400" font-size="110" transform="matrix(1 0 0 1 3534.36 1839)"> </text><text fill="#7F7F7F" font-family="SimSun,SimSun_MSFontService,sans-serif" font-style="oblique" font-weight="700" font-size="50" transform="matrix(1 0 0 1 2610.16 227)">中文版</text><text fill="#7F7F7F" font-family="SimSun,SimSun_MSFontService,sans-serif" font-style="oblique" font-weight="700" font-size="50" transform="matrix(1 0 0 1 2811.83 227)">ver.1.0</text></g></svg>